<svg width="120" height="109" viewBox="0 0 120 109" fill="none" xmlns="http://www.w3.org/2000/svg">
<path fill-rule="evenodd" clip-rule="evenodd" d="M85.3912 25.5C85.3912 39.5833 73.9744 51 59.8912 51C45.8079 51 34.3912 39.5833 34.3912 25.5C34.3912 11.4167 45.8079 0 59.8912 0C73.9744 0 85.3912 11.4167 85.3912 25.5ZM76.8912 25.5C76.8912 34.8888 69.28 42.5 59.8912 42.5C50.5023 42.5 42.8912 34.8888 42.8912 25.5C42.8912 16.1112 50.5023 8.5 59.8912 8.5C69.28 8.5 76.8912 16.1112 76.8912 25.5Z" fill="white"/>
<path d="M59.8912 63.75C32.375 63.75 8.93059 80.0207 0 102.816C2.17555 104.977 4.46734 107.02 6.86515 108.936C13.5153 88.0077 34.3772 72.25 59.8912 72.25C85.4052 72.25 106.267 88.0077 112.917 108.936C115.315 107.02 117.607 104.977 119.782 102.816C110.852 80.0208 87.4073 63.75 59.8912 63.75Z" fill="white"/>
</svg>
