<svg width="16" height="16" viewBox="0 0 16 16" fill="none" xmlns="http://www.w3.org/2000/svg">
<g clip-path="url(#clip0_499_2113)">
<path d="M7.3335 2.66714H2.66683C2.31321 2.66714 1.97407 2.80762 1.72402 3.05767C1.47397 3.30772 1.3335 3.64685 1.3335 4.00048V13.3338C1.3335 13.6874 1.47397 14.0266 1.72402 14.2766C1.97407 14.5267 2.31321 14.6671 2.66683 14.6671H12.0002C12.3538 14.6671 12.6929 14.5267 12.943 14.2766C13.193 14.0266 13.3335 13.6874 13.3335 13.3338V8.66714M12.3335 1.66714C12.5987 1.40193 12.9584 1.25293 13.3335 1.25293C13.7086 1.25293 14.0683 1.40193 14.3335 1.66714C14.5987 1.93236 14.7477 2.29207 14.7477 2.66714C14.7477 3.04222 14.5987 3.40193 14.3335 3.66714L8.00016 10.0005L5.3335 10.6671L6.00016 8.00048L12.3335 1.66714Z" stroke="#1E1E1E" stroke-width="1.6" stroke-linecap="round" stroke-linejoin="round"/>
</g>
<defs>
<clipPath id="clip0_499_2113">
<rect width="16" height="16" fill="white"/>
</clipPath>
</defs>
</svg>
