<svg width="123" height="52" viewBox="0 0 123 52" fill="none" xmlns="http://www.w3.org/2000/svg">
<path d="M53.6702 18V5.4H58.6202C59.4962 5.4 60.2282 5.538 60.8162 5.814C61.4162 6.09 61.8662 6.474 62.1662 6.966C62.4782 7.446 62.6342 8.004 62.6342 8.64C62.6342 9.276 62.4902 9.81 62.2022 10.242C61.9262 10.674 61.5602 11.004 61.1042 11.232C60.6602 11.46 60.1742 11.598 59.6462 11.646L59.9342 11.448C60.4982 11.46 61.0022 11.61 61.4462 11.898C61.9022 12.186 62.2622 12.564 62.5262 13.032C62.7902 13.488 62.9222 13.998 62.9222 14.562C62.9222 15.222 62.7602 15.816 62.4362 16.344C62.1122 16.86 61.6442 17.268 61.0322 17.568C60.4202 17.856 59.6702 18 58.7822 18H53.6702ZM55.8302 16.236H58.4582C59.1782 16.236 59.7362 16.068 60.1322 15.732C60.5282 15.396 60.7262 14.928 60.7262 14.328C60.7262 13.728 60.5222 13.254 60.1142 12.906C59.7062 12.546 59.1422 12.366 58.4222 12.366H55.8302V16.236ZM55.8302 10.728H58.3142C58.9982 10.728 59.5202 10.572 59.8802 10.26C60.2402 9.936 60.4202 9.492 60.4202 8.928C60.4202 8.376 60.2402 7.944 59.8802 7.632C59.5202 7.308 58.9862 7.146 58.2782 7.146H55.8302V10.728ZM64.9913 18V8.982H67.1513V18H64.9913ZM66.0713 7.524C65.6753 7.524 65.3453 7.404 65.0813 7.164C64.8293 6.912 64.7033 6.606 64.7033 6.246C64.7033 5.874 64.8293 5.574 65.0813 5.346C65.3453 5.106 65.6753 4.986 66.0713 4.986C66.4673 4.986 66.7913 5.106 67.0433 5.346C67.3073 5.574 67.4393 5.874 67.4393 6.246C67.4393 6.606 67.3073 6.912 67.0433 7.164C66.7913 7.404 66.4673 7.524 66.0713 7.524ZM69.0178 18V16.254L73.6978 10.782H69.0898V8.982H76.1638V10.728L71.4658 16.218H76.2538V18H69.0178ZM83.4095 18.216C82.9295 18.216 82.4975 18.156 82.1135 18.036C81.7415 17.916 81.4055 17.742 81.1055 17.514C80.8175 17.286 80.5775 17.028 80.3855 16.74L80.1515 18H78.2255V5.04H80.3855V10.314C80.6615 9.882 81.0455 9.516 81.5375 9.216C82.0295 8.916 82.6535 8.766 83.4095 8.766C84.2615 8.766 85.0115 8.976 85.6595 9.396C86.3195 9.804 86.8355 10.362 87.2075 11.07C87.5915 11.778 87.7835 12.588 87.7835 13.5C87.7835 14.412 87.5915 15.222 87.2075 15.93C86.8355 16.638 86.3195 17.196 85.6595 17.604C85.0115 18.012 84.2615 18.216 83.4095 18.216ZM82.9595 16.344C83.4755 16.344 83.9255 16.224 84.3095 15.984C84.7055 15.744 85.0175 15.414 85.2455 14.994C85.4735 14.562 85.5875 14.064 85.5875 13.5C85.5875 12.936 85.4735 12.444 85.2455 12.024C85.0175 11.592 84.7055 11.256 84.3095 11.016C83.9255 10.776 83.4755 10.656 82.9595 10.656C82.4435 10.656 81.9875 10.776 81.5915 11.016C81.1955 11.256 80.8895 11.592 80.6735 12.024C80.4575 12.444 80.3495 12.936 80.3495 13.5C80.3495 14.052 80.4575 14.544 80.6735 14.976C80.8895 15.408 81.1955 15.744 81.5915 15.984C81.9875 16.224 82.4435 16.344 82.9595 16.344ZM94.1278 18.216C93.2398 18.216 92.4478 18.024 91.7518 17.64C91.0678 17.244 90.5278 16.698 90.1318 16.002C89.7478 15.294 89.5558 14.478 89.5558 13.554C89.5558 12.606 89.7478 11.778 90.1318 11.07C90.5158 10.35 91.0498 9.786 91.7338 9.378C92.4298 8.97 93.2338 8.766 94.1458 8.766C95.0338 8.766 95.8078 8.964 96.4678 9.36C97.1278 9.756 97.6378 10.284 97.9978 10.944C98.3698 11.604 98.5558 12.342 98.5558 13.158C98.5558 13.278 98.5498 13.41 98.5378 13.554C98.5378 13.698 98.5318 13.854 98.5198 14.022H91.1218V12.618H96.3778C96.3418 11.982 96.1138 11.478 95.6938 11.106C95.2858 10.722 94.7698 10.53 94.1458 10.53C93.7018 10.53 93.2878 10.632 92.9038 10.836C92.5318 11.04 92.2318 11.34 92.0038 11.736C91.7878 12.132 91.6798 12.63 91.6798 13.23V13.752C91.6798 14.316 91.7878 14.802 92.0038 15.21C92.2198 15.606 92.5078 15.912 92.8678 16.128C93.2398 16.332 93.6538 16.434 94.1098 16.434C94.6138 16.434 95.0278 16.326 95.3518 16.11C95.6878 15.894 95.9398 15.606 96.1078 15.246H98.2858C98.1298 15.798 97.8538 16.302 97.4578 16.758C97.0738 17.202 96.5998 17.556 96.0358 17.82C95.4838 18.084 94.8478 18.216 94.1278 18.216ZM100.532 18V8.982H102.44L102.584 10.512C102.872 9.984 103.274 9.564 103.79 9.252C104.318 8.928 104.93 8.766 105.626 8.766C106.358 8.766 106.982 8.922 107.498 9.234C108.014 9.534 108.41 9.984 108.686 10.584C108.974 11.172 109.118 11.91 109.118 12.798V18H106.958V12.996C106.958 12.228 106.79 11.64 106.454 11.232C106.13 10.812 105.632 10.602 104.96 10.602C104.528 10.602 104.138 10.71 103.79 10.926C103.442 11.13 103.172 11.43 102.98 11.826C102.788 12.21 102.692 12.684 102.692 13.248V18H100.532ZM57.9182 46.216C57.0062 46.216 56.1962 46.054 55.4882 45.73C54.7802 45.406 54.2222 44.944 53.8142 44.344C53.4182 43.744 53.2142 43.03 53.2022 42.202H55.4882C55.5002 42.622 55.6022 43 55.7942 43.336C55.9862 43.66 56.2562 43.918 56.6042 44.11C56.9642 44.302 57.3962 44.398 57.9002 44.398C58.3442 44.398 58.7222 44.332 59.0342 44.2C59.3582 44.056 59.6042 43.858 59.7722 43.606C59.9402 43.342 60.0242 43.036 60.0242 42.688C60.0242 42.292 59.9282 41.962 59.7362 41.698C59.5562 41.434 59.3042 41.218 58.9802 41.05C58.6562 40.87 58.2782 40.714 57.8462 40.582C57.4262 40.438 56.9882 40.288 56.5322 40.132C55.5362 39.796 54.7862 39.37 54.2822 38.854C53.7782 38.326 53.5262 37.624 53.5262 36.748C53.5262 36.016 53.7002 35.386 54.0482 34.858C54.4082 34.33 54.9002 33.922 55.5242 33.634C56.1602 33.334 56.8922 33.184 57.7202 33.184C58.5602 33.184 59.2922 33.334 59.9162 33.634C60.5402 33.934 61.0322 34.354 61.3922 34.894C61.7642 35.422 61.9562 36.058 61.9682 36.802H59.6642C59.6642 36.49 59.5802 36.202 59.4122 35.938C59.2562 35.662 59.0282 35.44 58.7282 35.272C58.4402 35.092 58.0922 35.002 57.6842 35.002C57.3242 34.99 57.0002 35.05 56.7122 35.182C56.4242 35.302 56.1962 35.482 56.0282 35.722C55.8722 35.95 55.7942 36.238 55.7942 36.586C55.7942 36.922 55.8722 37.204 56.0282 37.432C56.1842 37.648 56.4002 37.834 56.6762 37.99C56.9642 38.134 57.3002 38.272 57.6842 38.404C58.0682 38.536 58.4882 38.68 58.9442 38.836C59.5682 39.04 60.1322 39.292 60.6362 39.592C61.1522 39.88 61.5602 40.258 61.8602 40.726C62.1602 41.194 62.3102 41.8 62.3102 42.544C62.3102 43.192 62.1422 43.798 61.8062 44.362C61.4702 44.914 60.9782 45.364 60.3302 45.712C59.6822 46.048 58.8782 46.216 57.9182 46.216ZM67.3628 46.216C66.6188 46.216 66.0008 46.096 65.5088 45.856C65.0168 45.604 64.6508 45.268 64.4108 44.848C64.1708 44.428 64.0508 43.972 64.0508 43.48C64.0508 42.904 64.1948 42.412 64.4828 42.004C64.7828 41.584 65.2208 41.26 65.7968 41.032C66.3728 40.792 67.0808 40.672 67.9208 40.672H70.2068C70.2068 40.192 70.1408 39.796 70.0088 39.484C69.8768 39.172 69.6668 38.938 69.3788 38.782C69.1028 38.626 68.7548 38.548 68.3348 38.548C67.8308 38.548 67.3988 38.662 67.0388 38.89C66.6908 39.118 66.4808 39.454 66.4088 39.898H64.2848C64.3448 39.25 64.5608 38.698 64.9328 38.242C65.3048 37.774 65.7848 37.414 66.3728 37.162C66.9728 36.898 67.6268 36.766 68.3348 36.766C69.1868 36.766 69.9128 36.916 70.5128 37.216C71.1128 37.504 71.5688 37.924 71.8808 38.476C72.2048 39.016 72.3668 39.67 72.3668 40.438V46H70.5308L70.3148 44.56C70.1948 44.788 70.0388 45.004 69.8468 45.208C69.6668 45.412 69.4568 45.592 69.2168 45.748C68.9768 45.892 68.7008 46.006 68.3888 46.09C68.0888 46.174 67.7468 46.216 67.3628 46.216ZM67.8488 44.506C68.1968 44.506 68.5088 44.446 68.7848 44.326C69.0608 44.194 69.2948 44.014 69.4868 43.786C69.6788 43.558 69.8288 43.3 69.9368 43.012C70.0448 42.712 70.1168 42.406 70.1528 42.094V42.058H68.1548C67.7228 42.058 67.3688 42.112 67.0928 42.22C66.8288 42.328 66.6308 42.478 66.4988 42.67C66.3788 42.85 66.3188 43.066 66.3188 43.318C66.3188 43.57 66.3788 43.786 66.4988 43.966C66.6308 44.146 66.8108 44.284 67.0388 44.38C67.2668 44.464 67.5368 44.506 67.8488 44.506ZM75.4388 49.96L77.6528 44.992H77.1128L73.4948 36.982H75.8348L78.5528 43.102L81.1088 36.982H83.3948L77.7068 49.96H75.4388ZM87.2964 46.216C86.5524 46.216 85.9344 46.096 85.4424 45.856C84.9504 45.604 84.5844 45.268 84.3444 44.848C84.1044 44.428 83.9844 43.972 83.9844 43.48C83.9844 42.904 84.1284 42.412 84.4164 42.004C84.7164 41.584 85.1544 41.26 85.7304 41.032C86.3064 40.792 87.0144 40.672 87.8544 40.672H90.1404C90.1404 40.192 90.0744 39.796 89.9424 39.484C89.8104 39.172 89.6004 38.938 89.3124 38.782C89.0364 38.626 88.6884 38.548 88.2684 38.548C87.7644 38.548 87.3324 38.662 86.9724 38.89C86.6244 39.118 86.4144 39.454 86.3424 39.898H84.2184C84.2784 39.25 84.4944 38.698 84.8664 38.242C85.2384 37.774 85.7184 37.414 86.3064 37.162C86.9064 36.898 87.5604 36.766 88.2684 36.766C89.1204 36.766 89.8464 36.916 90.4464 37.216C91.0464 37.504 91.5024 37.924 91.8144 38.476C92.1384 39.016 92.3004 39.67 92.3004 40.438V46H90.4644L90.2484 44.56C90.1284 44.788 89.9724 45.004 89.7804 45.208C89.6004 45.412 89.3904 45.592 89.1504 45.748C88.9104 45.892 88.6344 46.006 88.3224 46.09C88.0224 46.174 87.6804 46.216 87.2964 46.216ZM87.7824 44.506C88.1304 44.506 88.4424 44.446 88.7184 44.326C88.9944 44.194 89.2284 44.014 89.4204 43.786C89.6124 43.558 89.7624 43.3 89.8704 43.012C89.9784 42.712 90.0504 42.406 90.0864 42.094V42.058H88.0884C87.6564 42.058 87.3024 42.112 87.0264 42.22C86.7624 42.328 86.5644 42.478 86.4324 42.67C86.3124 42.85 86.2524 43.066 86.2524 43.318C86.2524 43.57 86.3124 43.786 86.4324 43.966C86.5644 44.146 86.7444 44.284 86.9724 44.38C87.2004 44.464 87.4704 44.506 87.7824 44.506ZM94.5732 46V33.04H96.7332V38.386C97.0212 37.894 97.4232 37.504 97.9392 37.216C98.4552 36.916 99.0432 36.766 99.7032 36.766C100.435 36.766 101.059 36.922 101.575 37.234C102.091 37.534 102.481 37.984 102.745 38.584C103.021 39.184 103.159 39.928 103.159 40.816V46H101.017V41.014C101.017 40.234 100.855 39.64 100.531 39.232C100.207 38.812 99.7092 38.602 99.0372 38.602C98.6052 38.602 98.2092 38.71 97.8492 38.926C97.5012 39.13 97.2252 39.43 97.0212 39.826C96.8292 40.222 96.7332 40.702 96.7332 41.266V46H94.5732ZM108.46 46.216C107.716 46.216 107.098 46.096 106.606 45.856C106.114 45.604 105.748 45.268 105.508 44.848C105.268 44.428 105.148 43.972 105.148 43.48C105.148 42.904 105.292 42.412 105.58 42.004C105.88 41.584 106.318 41.26 106.894 41.032C107.47 40.792 108.178 40.672 109.018 40.672H111.304C111.304 40.192 111.238 39.796 111.106 39.484C110.974 39.172 110.764 38.938 110.476 38.782C110.2 38.626 109.852 38.548 109.432 38.548C108.928 38.548 108.496 38.662 108.136 38.89C107.788 39.118 107.578 39.454 107.506 39.898H105.382C105.442 39.25 105.658 38.698 106.03 38.242C106.402 37.774 106.882 37.414 107.47 37.162C108.07 36.898 108.724 36.766 109.432 36.766C110.284 36.766 111.01 36.916 111.61 37.216C112.21 37.504 112.666 37.924 112.978 38.476C113.302 39.016 113.464 39.67 113.464 40.438V46H111.628L111.412 44.56C111.292 44.788 111.136 45.004 110.944 45.208C110.764 45.412 110.554 45.592 110.314 45.748C110.074 45.892 109.798 46.006 109.486 46.09C109.186 46.174 108.844 46.216 108.46 46.216ZM108.946 44.506C109.294 44.506 109.606 44.446 109.882 44.326C110.158 44.194 110.392 44.014 110.584 43.786C110.776 43.558 110.926 43.3 111.034 43.012C111.142 42.712 111.214 42.406 111.25 42.094V42.058H109.252C108.82 42.058 108.466 42.112 108.19 42.22C107.926 42.328 107.728 42.478 107.596 42.67C107.476 42.85 107.416 43.066 107.416 43.318C107.416 43.57 107.476 43.786 107.596 43.966C107.728 44.146 107.908 44.284 108.136 44.38C108.364 44.464 108.634 44.506 108.946 44.506ZM119.503 46C118.903 46 118.375 45.904 117.919 45.712C117.463 45.52 117.109 45.202 116.857 44.758C116.617 44.314 116.497 43.714 116.497 42.958V38.8H114.949V36.982H116.497L116.749 34.624H118.657V36.982H121.123V38.8H118.657V42.958C118.657 43.414 118.753 43.732 118.945 43.912C119.137 44.08 119.473 44.164 119.953 44.164H121.051V46H119.503Z" fill="#5A5450"/>
<g clip-path="url(#clip0_729_2743)">
<rect y="6.10986" width="40" height="40" rx="16" fill="#FFDF00"/>
<path d="M26.68 19.6899C27.4667 19.6899 28.0733 19.7765 28.5 19.9499C28.9267 20.1099 29.2933 20.2832 29.6 20.4699C29.76 20.5632 29.8867 20.6365 29.98 20.6899C30.0867 20.7299 30.1867 20.7499 30.28 20.7499C30.4133 20.7499 30.5067 20.6765 30.56 20.5299C30.6267 20.3832 30.68 20.1632 30.72 19.8699H31.18C31.1667 20.1232 31.1467 20.4299 31.12 20.7899C31.1067 21.1365 31.0933 21.5965 31.08 22.1699C31.08 22.7432 31.08 23.4965 31.08 24.4299H30.62C30.5667 23.7365 30.4067 23.0632 30.14 22.4099C29.8733 21.7565 29.4933 21.2232 29 20.8099C28.52 20.3832 27.9267 20.1699 27.22 20.1699C26.58 20.1699 26.0533 20.3499 25.64 20.7099C25.2267 21.0699 25.02 21.5699 25.02 22.2099C25.02 22.7432 25.1533 23.2032 25.42 23.5899C25.6867 23.9632 26.0733 24.3299 26.58 24.6899C27.1 25.0499 27.7267 25.4832 28.46 25.9899C29.1 26.4032 29.6733 26.8165 30.18 27.2299C30.6867 27.6432 31.0933 28.1099 31.4 28.6299C31.7067 29.1499 31.86 29.7699 31.86 30.4899C31.86 31.3699 31.6267 32.0965 31.16 32.6699C30.7067 33.2432 30.1067 33.6765 29.36 33.9699C28.6133 34.2499 27.7933 34.3899 26.9 34.3899C26.0733 34.3899 25.4133 34.3099 24.92 34.1499C24.4267 33.9899 24.0133 33.8232 23.68 33.6499C23.3867 33.4632 23.16 33.3699 23 33.3699C22.8667 33.3699 22.7667 33.4432 22.7 33.5899C22.6467 33.7365 22.6 33.9565 22.56 34.2499H22.1C22.1267 33.9299 22.14 33.5565 22.14 33.1299C22.1533 32.7032 22.16 32.1499 22.16 31.4699C22.1733 30.7765 22.18 29.9032 22.18 28.8499H22.64C22.6933 29.7299 22.84 30.5565 23.08 31.3299C23.3333 32.0899 23.7133 32.7032 24.22 33.1699C24.74 33.6365 25.4267 33.8699 26.28 33.8699C26.7467 33.8699 27.16 33.7899 27.52 33.6299C27.8933 33.4565 28.1933 33.2032 28.42 32.8699C28.6467 32.5365 28.76 32.1232 28.76 31.6299C28.76 31.0699 28.6267 30.5832 28.36 30.1699C28.1067 29.7565 27.7533 29.3699 27.3 29.0099C26.86 28.6499 26.3467 28.2832 25.76 27.9099C25.1333 27.4965 24.5467 27.0832 24 26.6699C23.4533 26.2565 23.0133 25.7832 22.68 25.2499C22.36 24.7165 22.2 24.0832 22.2 23.3499C22.2 22.5099 22.4067 21.8232 22.82 21.2899C23.2467 20.7432 23.8 20.3432 24.48 20.0899C25.1733 19.8232 25.9067 19.6899 26.68 19.6899Z" fill="#FAFAF9"/>
<path d="M8.68 19.9499C9.02667 19.9632 9.48 19.9765 10.04 19.9899C10.6 20.0032 11.16 20.0099 11.72 20.0099C12.36 20.0099 12.98 20.0032 13.58 19.9899C14.18 19.9765 14.6067 19.9699 14.86 19.9699C16.5133 19.9699 17.7467 20.2632 18.56 20.8499C19.3867 21.4365 19.8 22.1899 19.8 23.1099C19.8 23.5765 19.66 24.0499 19.38 24.5299C19.1 25.0099 18.6667 25.4365 18.08 25.8099C17.4933 26.1832 16.7333 26.4565 15.8 26.6299V26.6699C17.0533 26.7632 18.0467 26.9899 18.78 27.3499C19.5133 27.7099 20.04 28.1432 20.36 28.6499C20.68 29.1565 20.84 29.6832 20.84 30.2299C20.84 31.0699 20.62 31.7765 20.18 32.3499C19.74 32.9232 19.1067 33.3632 18.28 33.6699C17.4533 33.9632 16.4667 34.1099 15.32 34.1099C15 34.1099 14.54 34.1032 13.94 34.0899C13.34 34.0632 12.6133 34.0499 11.76 34.0499C11.1733 34.0499 10.6 34.0565 10.04 34.0699C9.48 34.0699 9.02667 34.0832 8.68 34.1099V33.7099C9.10667 33.6832 9.42667 33.6299 9.64 33.5499C9.85333 33.4699 9.99333 33.3099 10.06 33.0699C10.14 32.8299 10.18 32.4699 10.18 31.9899V22.0699C10.18 21.5765 10.14 21.2165 10.06 20.9899C9.99333 20.7499 9.84667 20.5899 9.62 20.5099C9.40667 20.4165 9.09333 20.3632 8.68 20.3499V19.9499ZM14.6 20.3499C14.08 20.3499 13.74 20.4632 13.58 20.6899C13.4333 20.9165 13.36 21.3765 13.36 22.0699V31.9899C13.36 32.4565 13.3933 32.8099 13.46 33.0499C13.54 33.2899 13.6733 33.4499 13.86 33.5299C14.06 33.6099 14.3533 33.6499 14.74 33.6499C15.7 33.6499 16.4 33.3499 16.84 32.7499C17.2933 32.1365 17.52 31.2699 17.52 30.1499C17.52 29.1232 17.26 28.3299 16.74 27.7699C16.2333 27.2099 15.3867 26.9299 14.2 26.9299H12.5C12.5 26.9299 12.5 26.8765 12.5 26.7699C12.5 26.6499 12.5 26.5899 12.5 26.5899H14.22C14.8467 26.5899 15.3267 26.4432 15.66 26.1499C15.9933 25.8432 16.2267 25.4432 16.36 24.9499C16.4933 24.4432 16.56 23.9032 16.56 23.3299C16.56 22.3432 16.4067 21.6032 16.1 21.1099C15.7933 20.6032 15.2933 20.3499 14.6 20.3499Z" fill="#FAFAF9"/>
</g>
<defs>
<clipPath id="clip0_729_2743">
<rect y="6.10986" width="40" height="40" rx="16" fill="white"/>
</clipPath>
</defs>
</svg>
