<svg width="48" height="48" viewBox="0 0 48 48" fill="none" xmlns="http://www.w3.org/2000/svg">
<rect width="48" height="48" rx="20" fill="#75B7C1"/>
<path d="M33.64 15.6398L32.36 14.3598C32.2475 14.2461 32.1136 14.1559 31.966 14.0943C31.8184 14.0327 31.66 14.001 31.5 14.001C31.3401 14.001 31.1817 14.0327 31.0341 14.0943C30.8865 14.1559 30.7526 14.2461 30.64 14.3598L14.36 30.6398C14.2464 30.7523 14.1561 30.8863 14.0945 31.0339C14.0329 31.1815 14.0012 31.3399 14.0012 31.4998C14.0012 31.6598 14.0329 31.8181 14.0945 31.9657C14.1561 32.1133 14.2464 32.2473 14.36 32.3598L15.64 33.6398C15.7519 33.7547 15.8856 33.846 16.0333 33.9084C16.181 33.9708 16.3397 34.0029 16.5 34.0029C16.6604 34.0029 16.8191 33.9708 16.9668 33.9084C17.1145 33.846 17.2482 33.7547 17.36 33.6398L33.64 17.3598C33.755 17.248 33.8463 17.1143 33.9087 16.9666C33.971 16.8188 34.0031 16.6601 34.0031 16.4998C34.0031 16.3395 33.971 16.1808 33.9087 16.033C33.8463 15.8853 33.755 15.7516 33.64 15.6398Z" stroke="white" stroke-width="2" stroke-linecap="round" stroke-linejoin="round"/>
<path d="M26 19L29 22" stroke="white" stroke-width="2" stroke-linecap="round" stroke-linejoin="round"/>
<path d="M17 18V22" stroke="white" stroke-width="2" stroke-linecap="round" stroke-linejoin="round"/>
<path d="M31 26V30" stroke="white" stroke-width="2" stroke-linecap="round" stroke-linejoin="round"/>
<path d="M22 14V16" stroke="white" stroke-width="2" stroke-linecap="round" stroke-linejoin="round"/>
<path d="M19 20H15" stroke="white" stroke-width="2" stroke-linecap="round" stroke-linejoin="round"/>
<path d="M33 28H29" stroke="white" stroke-width="2" stroke-linecap="round" stroke-linejoin="round"/>
<path d="M23 15H21" stroke="white" stroke-width="2" stroke-linecap="round" stroke-linejoin="round"/>
</svg>
