<svg width="20" height="20" viewBox="0 0 20 20" fill="none" xmlns="http://www.w3.org/2000/svg">
<path d="M16.6663 8.33366C16.6663 13.3337 9.99967 18.3337 9.99967 18.3337C9.99967 18.3337 3.33301 13.3337 3.33301 8.33366C3.33301 6.56555 4.03539 4.86986 5.28563 3.61961C6.53587 2.36937 8.23156 1.66699 9.99967 1.66699C11.7678 1.66699 13.4635 2.36937 14.7137 3.61961C15.964 4.86986 16.6663 6.56555 16.6663 8.33366Z" stroke="#FFDF00" stroke-width="1.66667" stroke-linecap="round" stroke-linejoin="round"/>
<path d="M10 10.833C11.3807 10.833 12.5 9.71372 12.5 8.33301C12.5 6.9523 11.3807 5.83301 10 5.83301C8.61929 5.83301 7.5 6.9523 7.5 8.33301C7.5 9.71372 8.61929 10.833 10 10.833Z" stroke="#FFDF00" stroke-width="1.66667" stroke-linecap="round" stroke-linejoin="round"/>
</svg>
