<svg width="16" height="16" viewBox="0 0 16 16" fill="none" xmlns="http://www.w3.org/2000/svg">
<path d="M13.3332 6.66634C13.3332 10.6663 7.99984 14.6663 7.99984 14.6663C7.99984 14.6663 2.6665 10.6663 2.6665 6.66634C2.6665 5.25185 3.22841 3.8953 4.2286 2.89511C5.2288 1.89491 6.58535 1.33301 7.99984 1.33301C9.41433 1.33301 10.7709 1.89491 11.7711 2.89511C12.7713 3.8953 13.3332 5.25185 13.3332 6.66634Z" stroke="#4811AE" stroke-width="1.33333" stroke-linecap="round" stroke-linejoin="round"/>
<path d="M8 8.66699C9.10457 8.66699 10 7.77156 10 6.66699C10 5.56242 9.10457 4.66699 8 4.66699C6.89543 4.66699 6 5.56242 6 6.66699C6 7.77156 6.89543 8.66699 8 8.66699Z" stroke="#4811AE" stroke-width="1.33333" stroke-linecap="round" stroke-linejoin="round"/>
</svg>
