<svg width="48" height="48" viewBox="0 0 48 48" fill="none" xmlns="http://www.w3.org/2000/svg">
<rect width="48" height="48" rx="20" fill="#F3F2EE"/>
<path d="M29.8 31.2L28 23L31.5 19.5C33 18 33.5 16 33 15C32 14.5 30 15 28.5 16.5L25 20L16.8 18.2C16.3 18.1 15.9 18.3 15.7 18.7L15.4 19.2C15.2 19.7 15.3 20.2 15.7 20.5L21 24L19 27H16L15 28L18 30L20 33L21 32V29L24 27L27.5 32.3C27.8 32.7 28.3 32.8 28.8 32.6L29.3 32.4C29.7 32.1 29.9 31.7 29.8 31.2Z" stroke="#5A5450" stroke-width="2" stroke-linecap="round" stroke-linejoin="round"/>
</svg>
