<svg width="14" height="14" viewBox="0 0 14 14" fill="none" xmlns="http://www.w3.org/2000/svg">
<path d="M11.6666 5.83366C11.6666 9.33366 6.99992 12.8337 6.99992 12.8337C6.99992 12.8337 2.33325 9.33366 2.33325 5.83366C2.33325 4.59598 2.82492 3.409 3.70009 2.53383C4.57526 1.65866 5.76224 1.16699 6.99992 1.16699C8.2376 1.16699 9.42458 1.65866 10.2998 2.53383C11.1749 3.409 11.6666 4.59598 11.6666 5.83366Z" stroke="#5A5450" stroke-width="1.16667" stroke-linecap="round" stroke-linejoin="round"/>
<path d="M7 7.58301C7.9665 7.58301 8.75 6.79951 8.75 5.83301C8.75 4.86651 7.9665 4.08301 7 4.08301C6.0335 4.08301 5.25 4.86651 5.25 5.83301C5.25 6.79951 6.0335 7.58301 7 7.58301Z" stroke="#5A5450" stroke-width="1.16667" stroke-linecap="round" stroke-linejoin="round"/>
</svg>
