<svg width="16" height="16" viewBox="0 0 16 16" fill="none" xmlns="http://www.w3.org/2000/svg">
<g clip-path="url(#clip0_413_1997)">
<path d="M1.3335 6.33369C1.33351 5.59182 1.55856 4.86741 1.97892 4.25613C2.39928 3.64485 2.99517 3.17546 3.6879 2.90995C4.38063 2.64445 5.1376 2.59532 5.85884 2.76905C6.58007 2.94278 7.23165 3.33121 7.7275 3.88302C7.76242 3.92036 7.80464 3.95013 7.85155 3.97049C7.89845 3.99084 7.94903 4.00134 8.00016 4.00134C8.05129 4.00134 8.10188 3.99084 8.14878 3.97049C8.19568 3.95013 8.23791 3.92036 8.27283 3.88302C8.76712 3.32762 9.41884 2.93593 10.1413 2.76009C10.8637 2.58424 11.6225 2.63258 12.3167 2.89867C13.011 3.16477 13.6078 3.63599 14.0276 4.24962C14.4474 4.86325 14.6704 5.59019 14.6668 6.33369C14.6668 7.86035 13.6668 9.00035 12.6668 10.0004L9.0055 13.5424C8.88128 13.685 8.72812 13.7996 8.55619 13.8786C8.38427 13.9575 8.19752 13.9989 8.00836 14.0001C7.81919 14.0013 7.63193 13.9622 7.45902 13.8855C7.28611 13.8088 7.13152 13.6961 7.0055 13.555L3.3335 10.0004C2.3335 9.00035 1.3335 7.86702 1.3335 6.33369Z" fill="#EF4444" stroke="#EF4444" stroke-width="1.33333" stroke-linecap="round" stroke-linejoin="round"/>
</g>
<defs>
<clipPath id="clip0_413_1997">
<rect width="16" height="16" fill="white"/>
</clipPath>
</defs>
</svg>
