<svg width="194" height="43" viewBox="0 0 194 43" fill="none" xmlns="http://www.w3.org/2000/svg">
<path d="M52.26 20V7.4H57.21C58.086 7.4 58.818 7.538 59.406 7.814C60.006 8.09 60.456 8.474 60.756 8.966C61.068 9.446 61.224 10.004 61.224 10.64C61.224 11.276 61.08 11.81 60.792 12.242C60.516 12.674 60.15 13.004 59.694 13.232C59.25 13.46 58.764 13.598 58.236 13.646L58.524 13.448C59.088 13.46 59.592 13.61 60.036 13.898C60.492 14.186 60.852 14.564 61.116 15.032C61.38 15.488 61.512 15.998 61.512 16.562C61.512 17.222 61.35 17.816 61.026 18.344C60.702 18.86 60.234 19.268 59.622 19.568C59.01 19.856 58.26 20 57.372 20H52.26ZM54.42 18.236H57.048C57.768 18.236 58.326 18.068 58.722 17.732C59.118 17.396 59.316 16.928 59.316 16.328C59.316 15.728 59.112 15.254 58.704 14.906C58.296 14.546 57.732 14.366 57.012 14.366H54.42V18.236ZM54.42 12.728H56.904C57.588 12.728 58.11 12.572 58.47 12.26C58.83 11.936 59.01 11.492 59.01 10.928C59.01 10.376 58.83 9.944 58.47 9.632C58.11 9.308 57.576 9.146 56.868 9.146H54.42V12.728ZM63.1312 20V10.982H65.2912V20H63.1312ZM64.2112 9.524C63.8152 9.524 63.4852 9.404 63.2212 9.164C62.9692 8.912 62.8432 8.606 62.8432 8.246C62.8432 7.874 62.9692 7.574 63.2212 7.346C63.4852 7.106 63.8152 6.986 64.2112 6.986C64.6072 6.986 64.9312 7.106 65.1832 7.346C65.4472 7.574 65.5792 7.874 65.5792 8.246C65.5792 8.606 65.4472 8.912 65.1832 9.164C64.9312 9.404 64.6072 9.524 64.2112 9.524ZM66.7077 20V18.254L71.3877 12.782H66.7797V10.982H73.8537V12.728L69.1557 18.218H73.9437V20H66.7077ZM80.6494 20.216C80.1694 20.216 79.7374 20.156 79.3534 20.036C78.9814 19.916 78.6454 19.742 78.3454 19.514C78.0574 19.286 77.8174 19.028 77.6254 18.74L77.3914 20H75.4654V7.04H77.6254V12.314C77.9014 11.882 78.2854 11.516 78.7774 11.216C79.2694 10.916 79.8934 10.766 80.6494 10.766C81.5014 10.766 82.2514 10.976 82.8994 11.396C83.5594 11.804 84.0754 12.362 84.4474 13.07C84.8314 13.778 85.0234 14.588 85.0234 15.5C85.0234 16.412 84.8314 17.222 84.4474 17.93C84.0754 18.638 83.5594 19.196 82.8994 19.604C82.2514 20.012 81.5014 20.216 80.6494 20.216ZM80.1994 18.344C80.7154 18.344 81.1654 18.224 81.5494 17.984C81.9454 17.744 82.2574 17.414 82.4854 16.994C82.7134 16.562 82.8274 16.064 82.8274 15.5C82.8274 14.936 82.7134 14.444 82.4854 14.024C82.2574 13.592 81.9454 13.256 81.5494 13.016C81.1654 12.776 80.7154 12.656 80.1994 12.656C79.6834 12.656 79.2274 12.776 78.8314 13.016C78.4354 13.256 78.1294 13.592 77.9134 14.024C77.6974 14.444 77.5894 14.936 77.5894 15.5C77.5894 16.052 77.6974 16.544 77.9134 16.976C78.1294 17.408 78.4354 17.744 78.8314 17.984C79.2274 18.224 79.6834 18.344 80.1994 18.344ZM90.9177 20.216C90.0297 20.216 89.2377 20.024 88.5417 19.64C87.8577 19.244 87.3177 18.698 86.9217 18.002C86.5377 17.294 86.3457 16.478 86.3457 15.554C86.3457 14.606 86.5377 13.778 86.9217 13.07C87.3057 12.35 87.8397 11.786 88.5237 11.378C89.2197 10.97 90.0237 10.766 90.9357 10.766C91.8237 10.766 92.5977 10.964 93.2577 11.36C93.9177 11.756 94.4277 12.284 94.7877 12.944C95.1597 13.604 95.3457 14.342 95.3457 15.158C95.3457 15.278 95.3397 15.41 95.3277 15.554C95.3277 15.698 95.3217 15.854 95.3097 16.022H87.9117V14.618H93.1677C93.1317 13.982 92.9037 13.478 92.4837 13.106C92.0757 12.722 91.5597 12.53 90.9357 12.53C90.4917 12.53 90.0777 12.632 89.6937 12.836C89.3217 13.04 89.0217 13.34 88.7937 13.736C88.5777 14.132 88.4697 14.63 88.4697 15.23V15.752C88.4697 16.316 88.5777 16.802 88.7937 17.21C89.0097 17.606 89.2977 17.912 89.6577 18.128C90.0297 18.332 90.4437 18.434 90.8997 18.434C91.4037 18.434 91.8177 18.326 92.1417 18.11C92.4777 17.894 92.7297 17.606 92.8977 17.246H95.0757C94.9197 17.798 94.6437 18.302 94.2477 18.758C93.8637 19.202 93.3897 19.556 92.8257 19.82C92.2737 20.084 91.6377 20.216 90.9177 20.216ZM96.872 20V10.982H98.78L98.924 12.512C99.212 11.984 99.614 11.564 100.13 11.252C100.658 10.928 101.27 10.766 101.966 10.766C102.698 10.766 103.322 10.922 103.838 11.234C104.354 11.534 104.75 11.984 105.026 12.584C105.314 13.172 105.458 13.91 105.458 14.798V20H103.298V14.996C103.298 14.228 103.13 13.64 102.794 13.232C102.47 12.812 101.972 12.602 101.3 12.602C100.868 12.602 100.478 12.71 100.13 12.926C99.782 13.13 99.512 13.43 99.32 13.826C99.128 14.21 99.032 14.684 99.032 15.248V20H96.872ZM115.514 20.216C114.602 20.216 113.792 20.054 113.084 19.73C112.376 19.406 111.818 18.944 111.41 18.344C111.014 17.744 110.81 17.03 110.798 16.202H113.084C113.096 16.622 113.198 17 113.39 17.336C113.582 17.66 113.852 17.918 114.2 18.11C114.56 18.302 114.992 18.398 115.496 18.398C115.94 18.398 116.318 18.332 116.63 18.2C116.954 18.056 117.2 17.858 117.368 17.606C117.536 17.342 117.62 17.036 117.62 16.688C117.62 16.292 117.524 15.962 117.332 15.698C117.152 15.434 116.9 15.218 116.576 15.05C116.252 14.87 115.874 14.714 115.442 14.582C115.022 14.438 114.584 14.288 114.128 14.132C113.132 13.796 112.382 13.37 111.878 12.854C111.374 12.326 111.122 11.624 111.122 10.748C111.122 10.016 111.296 9.386 111.644 8.858C112.004 8.33 112.496 7.922 113.12 7.634C113.756 7.334 114.488 7.184 115.316 7.184C116.156 7.184 116.888 7.334 117.512 7.634C118.136 7.934 118.628 8.354 118.988 8.894C119.36 9.422 119.552 10.058 119.564 10.802H117.26C117.26 10.49 117.176 10.202 117.008 9.938C116.852 9.662 116.624 9.44 116.324 9.272C116.036 9.092 115.688 9.002 115.28 9.002C114.92 8.99 114.596 9.05 114.308 9.182C114.02 9.302 113.792 9.482 113.624 9.722C113.468 9.95 113.39 10.238 113.39 10.586C113.39 10.922 113.468 11.204 113.624 11.432C113.78 11.648 113.996 11.834 114.272 11.99C114.56 12.134 114.896 12.272 115.28 12.404C115.664 12.536 116.084 12.68 116.54 12.836C117.164 13.04 117.728 13.292 118.232 13.592C118.748 13.88 119.156 14.258 119.456 14.726C119.756 15.194 119.906 15.8 119.906 16.544C119.906 17.192 119.738 17.798 119.402 18.362C119.066 18.914 118.574 19.364 117.926 19.712C117.278 20.048 116.474 20.216 115.514 20.216ZM124.509 20.216C123.765 20.216 123.147 20.096 122.655 19.856C122.163 19.604 121.797 19.268 121.557 18.848C121.317 18.428 121.197 17.972 121.197 17.48C121.197 16.904 121.341 16.412 121.629 16.004C121.929 15.584 122.367 15.26 122.943 15.032C123.519 14.792 124.227 14.672 125.067 14.672H127.353C127.353 14.192 127.287 13.796 127.155 13.484C127.023 13.172 126.813 12.938 126.525 12.782C126.249 12.626 125.901 12.548 125.481 12.548C124.977 12.548 124.545 12.662 124.185 12.89C123.837 13.118 123.627 13.454 123.555 13.898H121.431C121.491 13.25 121.707 12.698 122.079 12.242C122.451 11.774 122.931 11.414 123.519 11.162C124.119 10.898 124.773 10.766 125.481 10.766C126.333 10.766 127.059 10.916 127.659 11.216C128.259 11.504 128.715 11.924 129.027 12.476C129.351 13.016 129.513 13.67 129.513 14.438V20H127.677L127.461 18.56C127.341 18.788 127.185 19.004 126.993 19.208C126.813 19.412 126.603 19.592 126.363 19.748C126.123 19.892 125.847 20.006 125.535 20.09C125.235 20.174 124.893 20.216 124.509 20.216ZM124.995 18.506C125.343 18.506 125.655 18.446 125.931 18.326C126.207 18.194 126.441 18.014 126.633 17.786C126.825 17.558 126.975 17.3 127.083 17.012C127.191 16.712 127.263 16.406 127.299 16.094V16.058H125.301C124.869 16.058 124.515 16.112 124.239 16.22C123.975 16.328 123.777 16.478 123.645 16.67C123.525 16.85 123.465 17.066 123.465 17.318C123.465 17.57 123.525 17.786 123.645 17.966C123.777 18.146 123.957 18.284 124.185 18.38C124.413 18.464 124.683 18.506 124.995 18.506ZM132.135 23.96L134.349 18.992H133.809L130.191 10.982H132.531L135.249 17.102L137.805 10.982H140.091L134.403 23.96H132.135ZM143.543 20.216C142.799 20.216 142.181 20.096 141.688 19.856C141.197 19.604 140.831 19.268 140.591 18.848C140.351 18.428 140.231 17.972 140.231 17.48C140.231 16.904 140.375 16.412 140.663 16.004C140.963 15.584 141.401 15.26 141.977 15.032C142.553 14.792 143.261 14.672 144.101 14.672H146.387C146.387 14.192 146.321 13.796 146.189 13.484C146.057 13.172 145.847 12.938 145.559 12.782C145.283 12.626 144.935 12.548 144.515 12.548C144.011 12.548 143.579 12.662 143.219 12.89C142.871 13.118 142.661 13.454 142.589 13.898H140.465C140.525 13.25 140.741 12.698 141.113 12.242C141.485 11.774 141.965 11.414 142.553 11.162C143.153 10.898 143.807 10.766 144.515 10.766C145.367 10.766 146.093 10.916 146.693 11.216C147.293 11.504 147.749 11.924 148.061 12.476C148.385 13.016 148.547 13.67 148.547 14.438V20H146.711L146.495 18.56C146.375 18.788 146.219 19.004 146.027 19.208C145.847 19.412 145.637 19.592 145.397 19.748C145.157 19.892 144.881 20.006 144.569 20.09C144.269 20.174 143.927 20.216 143.543 20.216ZM144.029 18.506C144.377 18.506 144.689 18.446 144.965 18.326C145.241 18.194 145.475 18.014 145.667 17.786C145.859 17.558 146.009 17.3 146.117 17.012C146.225 16.712 146.297 16.406 146.333 16.094V16.058H144.335C143.903 16.058 143.549 16.112 143.273 16.22C143.009 16.328 142.811 16.478 142.679 16.67C142.559 16.85 142.499 17.066 142.499 17.318C142.499 17.57 142.559 17.786 142.679 17.966C142.811 18.146 142.991 18.284 143.219 18.38C143.447 18.464 143.717 18.506 144.029 18.506ZM150.369 20V7.04H152.529V12.386C152.817 11.894 153.219 11.504 153.735 11.216C154.251 10.916 154.839 10.766 155.499 10.766C156.231 10.766 156.855 10.922 157.371 11.234C157.887 11.534 158.277 11.984 158.541 12.584C158.817 13.184 158.955 13.928 158.955 14.816V20H156.813V15.014C156.813 14.234 156.651 13.64 156.327 13.232C156.003 12.812 155.505 12.602 154.833 12.602C154.401 12.602 154.005 12.71 153.645 12.926C153.297 13.13 153.021 13.43 152.817 13.826C152.625 14.222 152.529 14.702 152.529 15.266V20H150.369ZM163.807 20.216C163.063 20.216 162.445 20.096 161.953 19.856C161.461 19.604 161.095 19.268 160.855 18.848C160.615 18.428 160.495 17.972 160.495 17.48C160.495 16.904 160.639 16.412 160.927 16.004C161.227 15.584 161.665 15.26 162.241 15.032C162.817 14.792 163.525 14.672 164.365 14.672H166.651C166.651 14.192 166.585 13.796 166.453 13.484C166.321 13.172 166.111 12.938 165.823 12.782C165.547 12.626 165.199 12.548 164.779 12.548C164.275 12.548 163.843 12.662 163.483 12.89C163.135 13.118 162.925 13.454 162.853 13.898H160.729C160.789 13.25 161.005 12.698 161.377 12.242C161.749 11.774 162.229 11.414 162.817 11.162C163.417 10.898 164.071 10.766 164.779 10.766C165.631 10.766 166.357 10.916 166.957 11.216C167.557 11.504 168.013 11.924 168.325 12.476C168.649 13.016 168.811 13.67 168.811 14.438V20H166.975L166.759 18.56C166.639 18.788 166.483 19.004 166.291 19.208C166.111 19.412 165.901 19.592 165.661 19.748C165.421 19.892 165.145 20.006 164.833 20.09C164.533 20.174 164.191 20.216 163.807 20.216ZM164.293 18.506C164.641 18.506 164.953 18.446 165.229 18.326C165.505 18.194 165.739 18.014 165.931 17.786C166.123 17.558 166.273 17.3 166.381 17.012C166.489 16.712 166.561 16.406 166.597 16.094V16.058H164.599C164.167 16.058 163.813 16.112 163.537 16.22C163.273 16.328 163.075 16.478 162.943 16.67C162.823 16.85 162.763 17.066 162.763 17.318C162.763 17.57 162.823 17.786 162.943 17.966C163.075 18.146 163.255 18.284 163.483 18.38C163.711 18.464 163.981 18.506 164.293 18.506ZM174.399 20C173.799 20 173.271 19.904 172.815 19.712C172.359 19.52 172.005 19.202 171.753 18.758C171.513 18.314 171.393 17.714 171.393 16.958V12.8H169.845V10.982H171.393L171.645 8.624H173.553V10.982H176.019V12.8H173.553V16.958C173.553 17.414 173.649 17.732 173.841 17.912C174.033 18.08 174.369 18.164 174.849 18.164H175.947V20H174.399Z" fill="white"/>
<path d="M53.4 39V32.69H51.31V32H56.33V32.69H54.24V39H53.4ZM59.4048 39V32H61.6648C62.2114 32 62.6581 32.0933 63.0048 32.28C63.3514 32.46 63.6081 32.7033 63.7748 33.01C63.9414 33.3167 64.0248 33.6633 64.0248 34.05C64.0248 34.4233 63.9381 34.7667 63.7648 35.08C63.5981 35.3933 63.3381 35.6433 62.9848 35.83C62.6314 36.0167 62.1781 36.11 61.6248 36.11H60.2448V39H59.4048ZM63.1048 39L61.5648 35.87H62.5048L64.0948 39H63.1048ZM60.2448 35.45H61.6048C62.1381 35.45 62.5281 35.32 62.7748 35.06C63.0281 34.8 63.1548 34.4667 63.1548 34.06C63.1548 33.6467 63.0314 33.32 62.7848 33.08C62.5448 32.8333 62.1481 32.71 61.5948 32.71H60.2448V35.45ZM66.9116 39L69.4916 32H70.3816L72.9516 39H72.0516L69.9316 33.05L67.7916 39H66.9116ZM68.0916 37.2L68.3316 36.52H71.5016L71.7416 37.2H68.0916ZM77.1452 39L74.5152 32H75.4252L77.6352 38.11L79.8652 32H80.7552L78.1252 39H77.1452ZM83.7544 39V32H88.0844V32.69H84.5944V35.13H87.7844V35.81H84.5944V38.31H88.0844V39H83.7544ZM91.438 39V32H92.278V38.33H95.538V39H91.438ZM103.416 39V32H104.256V39H103.416ZM107.79 39V32H108.63L112.36 37.62V32H113.2V39H112.36L108.63 33.38V39H107.79ZM118.363 39V32.69H116.273V32H121.293V32.69H119.203V39H118.363ZM124.368 39V32H128.698V32.69H125.208V35.13H128.398V35.81H125.208V38.31H128.698V39H124.368ZM132.051 39V32H132.891V38.33H136.151V39H132.051ZM139.354 39V32H140.194V38.33H143.454V39H139.354ZM146.657 39V32H147.497V39H146.657ZM154.03 39.12C153.376 39.12 152.803 38.97 152.31 38.67C151.816 38.3633 151.433 37.94 151.16 37.4C150.886 36.86 150.75 36.23 150.75 35.51C150.75 34.7967 150.886 34.1667 151.16 33.62C151.44 33.0733 151.833 32.6467 152.34 32.34C152.853 32.0333 153.456 31.88 154.15 31.88C154.936 31.88 155.593 32.07 156.12 32.45C156.646 32.8233 156.983 33.3467 157.13 34.02H156.16C156.066 33.6 155.846 33.2667 155.5 33.02C155.153 32.7733 154.703 32.65 154.15 32.65C153.636 32.65 153.186 32.7667 152.8 33C152.42 33.2267 152.126 33.5533 151.92 33.98C151.713 34.4067 151.61 34.9167 151.61 35.51C151.61 36.1033 151.713 36.6167 151.92 37.05C152.126 37.4767 152.413 37.8033 152.78 38.03C153.153 38.2567 153.58 38.37 154.06 38.37C154.806 38.37 155.37 38.15 155.75 37.71C156.13 37.27 156.346 36.6733 156.4 35.92H154.38V35.26H157.26V39H156.49L156.42 37.85C156.253 38.1233 156.06 38.3567 155.84 38.55C155.626 38.7367 155.373 38.88 155.08 38.98C154.786 39.0733 154.436 39.12 154.03 39.12ZM160.637 39V32H164.967V32.69H161.477V35.13H164.667V35.81H161.477V38.31H164.967V39H160.637ZM168.321 39V32H169.161L172.891 37.62V32H173.731V39H172.891L169.161 33.38V39H168.321ZM180.224 39.12C179.564 39.12 178.991 38.97 178.504 38.67C178.017 38.3633 177.641 37.94 177.374 37.4C177.114 36.8533 176.984 36.22 176.984 35.5C176.984 34.78 177.114 34.15 177.374 33.61C177.641 33.0633 178.017 32.64 178.504 32.34C178.991 32.0333 179.564 31.88 180.224 31.88C181.024 31.88 181.671 32.07 182.164 32.45C182.657 32.83 182.974 33.3667 183.114 34.06H182.204C182.091 33.6267 181.871 33.28 181.544 33.02C181.224 32.7533 180.784 32.62 180.224 32.62C179.744 32.62 179.324 32.7367 178.964 32.97C178.604 33.1967 178.327 33.5267 178.134 33.96C177.941 34.3867 177.844 34.9 177.844 35.5C177.844 36.1 177.941 36.6167 178.134 37.05C178.327 37.4767 178.604 37.8067 178.964 38.04C179.324 38.2667 179.744 38.38 180.224 38.38C180.784 38.38 181.224 38.2533 181.544 38C181.871 37.74 182.091 37.3967 182.204 36.97H183.114C182.974 37.6433 182.657 38.17 182.164 38.55C181.671 38.93 181.024 39.12 180.224 39.12ZM186.374 39V32H190.704V32.69H187.214V35.13H190.404V35.81H187.214V38.31H190.704V39H186.374Z" fill="white"/>
<g clip-path="url(#clip0_845_2844)">
<rect y="1.5" width="40" height="40" rx="16" fill="#FFDF00"/>
<path d="M26.68 15.08C27.4667 15.08 28.0733 15.1667 28.5 15.34C28.9267 15.5 29.2933 15.6733 29.6 15.86C29.76 15.9533 29.8867 16.0267 29.98 16.08C30.0867 16.12 30.1867 16.14 30.28 16.14C30.4133 16.14 30.5067 16.0667 30.56 15.92C30.6267 15.7733 30.68 15.5533 30.72 15.26H31.18C31.1667 15.5133 31.1467 15.82 31.12 16.18C31.1067 16.5267 31.0933 16.9867 31.08 17.56C31.08 18.1333 31.08 18.8867 31.08 19.82H30.62C30.5667 19.1267 30.4067 18.4533 30.14 17.8C29.8733 17.1467 29.4933 16.6133 29 16.2C28.52 15.7733 27.9267 15.56 27.22 15.56C26.58 15.56 26.0533 15.74 25.64 16.1C25.2267 16.46 25.02 16.96 25.02 17.6C25.02 18.1333 25.1533 18.5933 25.42 18.98C25.6867 19.3533 26.0733 19.72 26.58 20.08C27.1 20.44 27.7267 20.8733 28.46 21.38C29.1 21.7933 29.6733 22.2067 30.18 22.62C30.6867 23.0333 31.0933 23.5 31.4 24.02C31.7067 24.54 31.86 25.16 31.86 25.88C31.86 26.76 31.6267 27.4867 31.16 28.06C30.7067 28.6333 30.1067 29.0667 29.36 29.36C28.6133 29.64 27.7933 29.78 26.9 29.78C26.0733 29.78 25.4133 29.7 24.92 29.54C24.4267 29.38 24.0133 29.2133 23.68 29.04C23.3867 28.8533 23.16 28.76 23 28.76C22.8667 28.76 22.7667 28.8333 22.7 28.98C22.6467 29.1267 22.6 29.3467 22.56 29.64H22.1C22.1267 29.32 22.14 28.9467 22.14 28.52C22.1533 28.0933 22.16 27.54 22.16 26.86C22.1733 26.1667 22.18 25.2933 22.18 24.24H22.64C22.6933 25.12 22.84 25.9467 23.08 26.72C23.3333 27.48 23.7133 28.0933 24.22 28.56C24.74 29.0267 25.4267 29.26 26.28 29.26C26.7467 29.26 27.16 29.18 27.52 29.02C27.8933 28.8467 28.1933 28.5933 28.42 28.26C28.6467 27.9267 28.76 27.5133 28.76 27.02C28.76 26.46 28.6267 25.9733 28.36 25.56C28.1067 25.1467 27.7533 24.76 27.3 24.4C26.86 24.04 26.3467 23.6733 25.76 23.3C25.1333 22.8867 24.5467 22.4733 24 22.06C23.4533 21.6467 23.0133 21.1733 22.68 20.64C22.36 20.1067 22.2 19.4733 22.2 18.74C22.2 17.9 22.4067 17.2133 22.82 16.68C23.2467 16.1333 23.8 15.7333 24.48 15.48C25.1733 15.2133 25.9067 15.08 26.68 15.08Z" fill="#FAFAF9"/>
<path d="M8.68 15.34C9.02667 15.3533 9.48 15.3667 10.04 15.38C10.6 15.3933 11.16 15.4 11.72 15.4C12.36 15.4 12.98 15.3933 13.58 15.38C14.18 15.3667 14.6067 15.36 14.86 15.36C16.5133 15.36 17.7467 15.6533 18.56 16.24C19.3867 16.8267 19.8 17.58 19.8 18.5C19.8 18.9667 19.66 19.44 19.38 19.92C19.1 20.4 18.6667 20.8267 18.08 21.2C17.4933 21.5733 16.7333 21.8467 15.8 22.02V22.06C17.0533 22.1533 18.0467 22.38 18.78 22.74C19.5133 23.1 20.04 23.5333 20.36 24.04C20.68 24.5467 20.84 25.0733 20.84 25.62C20.84 26.46 20.62 27.1667 20.18 27.74C19.74 28.3133 19.1067 28.7533 18.28 29.06C17.4533 29.3533 16.4667 29.5 15.32 29.5C15 29.5 14.54 29.4933 13.94 29.48C13.34 29.4533 12.6133 29.44 11.76 29.44C11.1733 29.44 10.6 29.4467 10.04 29.46C9.48 29.46 9.02667 29.4733 8.68 29.5V29.1C9.10667 29.0733 9.42667 29.02 9.64 28.94C9.85333 28.86 9.99333 28.7 10.06 28.46C10.14 28.22 10.18 27.86 10.18 27.38V17.46C10.18 16.9667 10.14 16.6067 10.06 16.38C9.99333 16.14 9.84667 15.98 9.62 15.9C9.40667 15.8067 9.09333 15.7533 8.68 15.74V15.34ZM14.6 15.74C14.08 15.74 13.74 15.8533 13.58 16.08C13.4333 16.3067 13.36 16.7667 13.36 17.46V27.38C13.36 27.8467 13.3933 28.2 13.46 28.44C13.54 28.68 13.6733 28.84 13.86 28.92C14.06 29 14.3533 29.04 14.74 29.04C15.7 29.04 16.4 28.74 16.84 28.14C17.2933 27.5267 17.52 26.66 17.52 25.54C17.52 24.5133 17.26 23.72 16.74 23.16C16.2333 22.6 15.3867 22.32 14.2 22.32H12.5C12.5 22.32 12.5 22.2667 12.5 22.16C12.5 22.04 12.5 21.98 12.5 21.98H14.22C14.8467 21.98 15.3267 21.8333 15.66 21.54C15.9933 21.2333 16.2267 20.8333 16.36 20.34C16.4933 19.8333 16.56 19.2933 16.56 18.72C16.56 17.7333 16.4067 16.9933 16.1 16.5C15.7933 15.9933 15.2933 15.74 14.6 15.74Z" fill="#FAFAF9"/>
</g>
<defs>
<clipPath id="clip0_845_2844">
<rect y="1.5" width="40" height="40" rx="16" fill="white"/>
</clipPath>
</defs>
</svg>
